<?xml version="1.0" encoding="UTF-8"?>
<svg version="1.1" id="caboodle-icon" xmlns="http://www.w3.org/2000/svg" xmlns:xlink="http://www.w3.org/1999/xlink" x="0px" y="0px" viewBox="0 0 222 190" style="enable-background:new 0 0 222 190;" xml:space="preserve">
<path d="M121.5,132.1c1,0.4,1.6,0.7,2,0.9c-0.1,0.2-0.2,0.4-0.4,0.6c-1.1,1.7-2.7,3.8-4.5,5.9c-1.8,2.1-3.7,3.9-5.4,5.1  c-1.2,0.9-1.9,1.2-2.1,1.3c-0.2-0.1-0.4-0.2-0.9-0.4c-0.3-0.2-0.8-0.5-1.3-0.9c-1.7-1.2-3.6-3.1-5.4-5.1c-1.8-2.1-3.4-4.2-4.5-5.9  c-0.1-0.2-0.3-0.4-0.4-0.6c0.2-0.1,0.5-0.3,0.8-0.4c0.3-0.2,0.7-0.3,1.2-0.5c3-1.1,7.2-1.6,10.4-1.6S118.4,131,121.5,132.1z   M97.9,133.6c0,0,0,0,0.1-0.1C98,133.6,97.9,133.6,97.9,133.6z M124.1,133.5c0.1,0.1,0.1,0.1,0.1,0.1S124.1,133.6,124.1,133.5z   M115,151.8c7.3-3.9,16-16.2,16-18.6c0-7.5-12.5-9.6-20-9.6s-20,2.2-20,9.6c0,2.4,8.7,14.6,15.9,18.6v27.4c-5,1.6-11.7,2.9-18.1,2.8  c-7.7-0.2-13.7-2.5-16.8-7.9c-1.1-2-3.5-2.7-5.5-1.6c-1.9,1.1-2.7,3.5-1.6,5.5c5.1,9.1,14.8,11.9,23.6,12.1  c8.2,0.2,16.6-1.7,22.3-3.7c5.7,2,14.1,3.9,22.3,3.7c8.8-0.2,18.5-3,23.6-12.1c1.1-2,0.4-4.4-1.6-5.5c-1.9-1.1-4.4-0.4-5.5,1.6  c-3,5.4-9.1,7.7-16.8,7.9c-6.4,0.2-13.1-1.2-18.1-2.8v-27.4H115z"/>
<path d="M20.6,23.2c-4.4,9.5-8.3,20.9-10.7,28.6c-0.6,2.1-2.9,3.3-5,2.7c-2.1-0.7-3.3-2.9-2.7-5c2.4-7.9,6.5-19.7,11-29.6  c2.3-4.9,4.7-9.6,7.2-13c1.3-1.7,2.6-3.3,4.1-4.5C26,1.1,28,0,30.3,0c3.8,0,7,2.6,9.3,5.1c2.4,2.7,4.8,6.2,6.9,9.9  c4.2,7.4,7.8,16.3,9.9,22.1c0.7,2.1-0.4,4.4-2.5,5.2c-2.1,0.7-4.4-0.4-5.2-2.5c-2-5.6-5.4-14-9.3-20.8c-2-3.5-3.9-6.4-5.8-8.4  c-1.8-2-2.9-2.4-3.3-2.5c-0.1,0-0.3,0.2-0.7,0.5c-0.7,0.6-1.6,1.5-2.6,2.9C24.9,14.3,22.7,18.4,20.6,23.2z"/>
<path d="M172.3,93.1c0,9-7.2,0-16,0s-16,9-16,0s7.2-16.2,16-16.2S172.3,84.1,172.3,93.1z"/>
<path d="M81.4,93.1c0,9-7.2,0-16,0s-16,9-16,0s7.2-16.2,16-16.2S81.4,84.1,81.4,93.1z"/>
<path d="M201.4,23.2c4.4,9.5,8.3,20.9,10.7,28.6c0.6,2.1,2.9,3.3,5,2.7c2.1-0.7,3.3-2.9,2.7-5c-2.4-7.9-6.5-19.7-11-29.6  c-2.3-4.9-4.7-9.6-7.2-13c-1.3-1.7-2.6-3.3-4.1-4.5C196,1.1,194,0,191.7,0c-3.8,0-7,2.6-9.3,5.1c-2.4,2.7-4.8,6.2-6.9,9.9  c-4.2,7.4-7.8,16.3-9.9,22.1c-0.7,2.1,0.4,4.4,2.5,5.2c2.1,0.7,4.4-0.4,5.1-2.5c2-5.6,5.4-14,9.3-20.8c2-3.5,3.9-6.4,5.8-8.4  c1.8-2,2.9-2.4,3.3-2.5c0.1,0,0.3,0.2,0.7,0.5c0.7,0.6,1.6,1.5,2.6,2.9C197.1,14.3,199.3,18.4,201.4,23.2z"/>
<path d="M222,132.5c0-2.2-1.8-4-4-4c-2.7,0-10.8,0.7-19.6,1.5c-8.9,0.8-18.8,1.9-25.2,2.5c-2.2,0.2-3.8,2.2-3.6,4.4s2.2,3.8,4.4,3.6  c6.4-0.7,16.3-1.7,25.1-2.5c9-0.9,16.7-1.5,18.8-1.5C220.2,136.5,222,134.7,222,132.5z"/>
<path d="M211.9,148.6c0-2.2-1.8-4-4-4c-2.3,0-9.1,0.7-16.2,1.5c-7.3,0.8-15.4,1.9-20.7,2.5c-2.2,0.3-3.8,2.3-3.5,4.5  s2.3,3.8,4.5,3.5c5.2-0.7,13.3-1.7,20.5-2.5c7.4-0.9,13.6-1.5,15.3-1.5C210.1,152.7,211.9,150.9,211.9,148.6z"/>
<path d="M0,132.5c0-2.2,1.8-4,4-4c2.7,0,10.8,0.7,19.6,1.5c8.9,0.8,18.8,1.9,25.2,2.5c2.2,0.2,3.8,2.2,3.6,4.4s-2.2,3.8-4.4,3.6  c-6.4-0.7-16.3-1.7-25.1-2.5c-9-0.9-16.7-1.5-18.8-1.5C1.8,136.5,0,134.7,0,132.5z"/>
<path d="M10.1,148.6c0-2.2,1.8-4,4-4c2.3,0,9.1,0.7,16.2,1.5c7.3,0.8,15.4,1.9,20.7,2.5c2.2,0.3,3.8,2.3,3.5,4.5s-2.3,3.8-4.5,3.5  c-5.2-0.7-13.3-1.7-20.5-2.5c-7.4-0.9-13.6-1.5-15.3-1.5C11.9,152.7,10.1,150.9,10.1,148.6z"/>
</svg>